<?xml version="1.0" encoding="UTF-8" standalone="no"?>
<!DOCTYPE svg PUBLIC "-//W3C//DTD SVG 1.1//EN"
 "http://www.w3.org/Graphics/SVG/1.1/DTD/svg11.dtd">
<!-- Generated by graphviz version 2.38.0 (20140413.2041)
 -->
<!-- Title: %3 Pages: 1 -->
<svg width="1082pt" height="666pt"
 viewBox="0.00 0.00 1082.32 665.50" xmlns="http://www.w3.org/2000/svg" xmlns:xlink="http://www.w3.org/1999/xlink">
<g id="graph0" class="graph" transform="scale(1 1) rotate(0) translate(4 661.5)">
<title>%3</title>
<polygon fill="white" stroke="none" points="-4,4 -4,-661.5 1078.32,-661.5 1078.32,4 -4,4"/>
<text text-anchor="start" x="455.661" y="-7" font-family="Courier,monospace" font-size="10.00">LUE modeling software stack</text>
<g id="clust1" class="cluster"><title>cluster_prototype</title>
<polygon fill="none" stroke="black" points="366.822,-488 366.822,-649.5 614.822,-649.5 614.822,-488 366.822,-488"/>
<text text-anchor="start" x="382.322" y="-495" font-family="Courier,monospace" font-size="10.00">LUE modeling environment (prototype)</text>
</g>
<g id="clust2" class="cluster"><title>cluster_pcraster</title>
<polygon fill="none" stroke="black" points="643.822,-379 643.822,-559 952.822,-559 952.822,-379 643.822,-379"/>
<text text-anchor="start" x="710.822" y="-386" font-family="Courier,monospace" font-size="10.00">PCRaster modeling environment</text>
</g>
<g id="clust3" class="cluster"><title>cluster_final</title>
<polygon fill="none" stroke="black" points="197.822,-379 197.822,-561.5 358.822,-561.5 358.822,-379 197.822,-379"/>
<text text-anchor="start" x="205.822" y="-386" font-family="Courier,monospace" font-size="10.00">LUE modeling environment</text>
</g>
<!-- hdf5_c -->
<g id="node1" class="node"><title>hdf5_c</title>
<polygon fill="lightgrey" stroke="black" points="118.322,-55 41.3221,-55 41.3221,-19 118.322,-19 118.322,-55"/>
<text text-anchor="start" x="49.3221" y="-34.5" font-family="Courier,monospace" font-size="10.00">HDF5 C&#45;API</text>
</g>
<!-- lue_hdf5 -->
<g id="node2" class="node"><title>lue_hdf5</title>
<polygon fill="lightgrey" stroke="black" points="124.322,-128 35.3221,-128 35.3221,-92 124.322,-92 124.322,-128"/>
<text text-anchor="start" x="43.3221" y="-113" font-family="Courier,monospace" font-size="10.00">lue_hdf5</text>
<text text-anchor="start" x="43.3221" y="-102" font-family="Courier,monospace" font-size="10.00">HDF5 C++&#45;API</text>
</g>
<!-- hdf5_c&#45;&gt;lue_hdf5 -->
<g id="edge1" class="edge"><title>hdf5_c&#45;&gt;lue_hdf5</title>
<path fill="none" stroke="black" d="M79.8221,-55.1871C79.8221,-63.2105 79.8221,-72.9525 79.8221,-81.9309"/>
<polygon fill="black" stroke="black" points="79.8221,-91.9712 75.3222,-81.9711 79.8221,-86.9712 79.8222,-81.9712 79.8222,-81.9712 79.8222,-81.9712 79.8221,-86.9712 84.3222,-81.9712 79.8221,-91.9712 79.8221,-91.9712"/>
</g>
<!-- lue_cxx -->
<g id="node3" class="node"><title>lue_cxx</title>
<polygon fill="lightgrey" stroke="black" points="136.322,-250 23.3221,-250 23.3221,-165 136.322,-165 136.322,-250"/>
<text text-anchor="start" x="31.3221" y="-238" font-family="Courier,monospace" font-size="10.00">lue_cxx</text>
<text text-anchor="start" x="31.3221" y="-227" font-family="Courier,monospace" font-size="10.00">C++&#45;API</text>
<text text-anchor="start" x="31.3221" y="-216" font-family="Courier,monospace" font-size="10.00">Support for:</text>
<text text-anchor="start" x="31.3221" y="-205" font-family="Courier,monospace" font-size="10.00">&#45; multiple items</text>
<text text-anchor="start" x="31.3221" y="-194" font-family="Courier,monospace" font-size="10.00">&#45; spatial point</text>
<text text-anchor="start" x="31.3221" y="-183" font-family="Courier,monospace" font-size="10.00">&#45; spatial field</text>
<text text-anchor="start" x="31.3221" y="-172" font-family="Courier,monospace" font-size="10.00">&#45; temporal field</text>
</g>
<!-- lue_hdf5&#45;&gt;lue_cxx -->
<g id="edge2" class="edge"><title>lue_hdf5&#45;&gt;lue_cxx</title>
<path fill="none" stroke="black" d="M79.8221,-128.073C79.8221,-135.719 79.8221,-145.183 79.8221,-154.863"/>
<polygon fill="black" stroke="black" points="79.8221,-164.96 75.3222,-154.959 79.8221,-159.96 79.8222,-154.96 79.8222,-154.96 79.8222,-154.96 79.8221,-159.96 84.3222,-154.96 79.8221,-164.96 79.8221,-164.96"/>
</g>
<!-- lue_hl -->
<g id="node4" class="node"><title>lue_hl</title>
<polygon fill="lightgrey" stroke="black" points="142.322,-350 17.3221,-350 17.3221,-287 142.322,-287 142.322,-350"/>
<text text-anchor="start" x="25.3221" y="-338" font-family="Courier,monospace" font-size="10.00">lue_hl</text>
<text text-anchor="start" x="25.3221" y="-327" font-family="Courier,monospace" font-size="10.00">high level C++&#45;API</text>
<text text-anchor="start" x="25.3221" y="-316" font-family="Courier,monospace" font-size="10.00">Support for:</text>
<text text-anchor="start" x="25.3221" y="-305" font-family="Courier,monospace" font-size="10.00">&#45; scalar</text>
<text text-anchor="start" x="25.3221" y="-294" font-family="Courier,monospace" font-size="10.00">&#45; raster</text>
</g>
<!-- lue_cxx&#45;&gt;lue_hl -->
<g id="edge3" class="edge"><title>lue_cxx&#45;&gt;lue_hl</title>
<path fill="none" stroke="black" d="M79.8221,-250.019C79.8221,-258.841 79.8221,-268.144 79.8221,-276.929"/>
<polygon fill="black" stroke="black" points="79.8221,-286.945 75.3222,-276.945 79.8221,-281.945 79.8222,-276.945 79.8222,-276.945 79.8222,-276.945 79.8221,-281.945 84.3222,-276.945 79.8221,-286.945 79.8221,-286.945"/>
</g>
<!-- lue_py -->
<g id="node5" class="node"><title>lue_py</title>
<polygon fill="lightgrey" stroke="black" points="445.322,-442 368.322,-442 368.322,-406 445.322,-406 445.322,-442"/>
<text text-anchor="start" x="376.322" y="-427" font-family="Courier,monospace" font-size="10.00">lue_py</text>
<text text-anchor="start" x="376.322" y="-416" font-family="Courier,monospace" font-size="10.00">Python&#45;API</text>
</g>
<!-- lue_cxx&#45;&gt;lue_py -->
<g id="edge4" class="edge"><title>lue_cxx&#45;&gt;lue_py</title>
<path fill="none" stroke="black" d="M136.392,-237.28C195.455,-268.514 289.519,-321.659 362.822,-379 370.161,-384.741 377.549,-391.608 384.121,-398.19"/>
<polygon fill="black" stroke="black" points="391.407,-405.703 381.215,-401.658 387.926,-402.114 384.445,-398.525 384.445,-398.525 384.445,-398.525 387.926,-402.114 387.675,-395.392 391.407,-405.703 391.407,-405.703"/>
</g>
<!-- lue_algorithms -->
<g id="node9" class="node"><title>lue_algorithms</title>
<polygon fill="lightgrey" stroke="black" points="157.322,-461 2.32207,-461 2.32207,-387 157.322,-387 157.322,-461"/>
<text text-anchor="start" x="10.3221" y="-449" font-family="Courier,monospace" font-size="10.00">Modeling algorithms</text>
<text text-anchor="start" x="10.3221" y="-438" font-family="Courier,monospace" font-size="10.00">&#45; C++/HPX</text>
<text text-anchor="start" x="10.3221" y="-427" font-family="Courier,monospace" font-size="10.00">&#45; Parallel, using HPX</text>
<text text-anchor="start" x="10.3221" y="-416" font-family="Courier,monospace" font-size="10.00">&#45; Local operations</text>
<text text-anchor="start" x="10.3221" y="-405" font-family="Courier,monospace" font-size="10.00">&#45; Delayed execution for</text>
<text text-anchor="start" x="10.3221" y="-394" font-family="Courier,monospace" font-size="10.00"> &#160;&#160;subset of locations</text>
</g>
<!-- lue_cxx&#45;&gt;lue_algorithms -->
<g id="edge22" class="edge"><title>lue_cxx&#45;&gt;lue_algorithms</title>
<path fill="none" stroke="black" d="M31.3883,-250.082C21.7807,-261.019 13.0532,-273.558 7.82207,-287 -2.33234,-313.094 -2.8038,-324.095 7.82207,-350 12.1587,-360.572 18.8479,-370.433 26.4371,-379.274"/>
<polygon fill="black" stroke="black" points="33.3016,-386.773 23.2301,-382.435 29.9255,-383.085 26.5494,-379.396 26.5494,-379.396 26.5494,-379.396 29.9255,-383.085 29.8687,-376.358 33.3016,-386.773 33.3016,-386.773"/>
</g>
<!-- lue_hl&#45;&gt;lue_py -->
<g id="edge5" class="edge"><title>lue_hl&#45;&gt;lue_py</title>
<path fill="none" stroke="black" d="M118.972,-350.222C130.544,-357.716 143.655,-364.783 156.822,-369 200.47,-382.978 320.917,-360.439 362.822,-379 372.252,-383.177 380.768,-390.357 387.74,-397.721"/>
<polygon fill="black" stroke="black" points="394.67,-405.649 384.7,-401.081 391.379,-401.884 388.089,-398.12 388.089,-398.12 388.089,-398.12 391.379,-401.884 391.477,-395.158 394.67,-405.649 394.67,-405.649"/>
</g>
<!-- lue_hl&#45;&gt;lue_algorithms -->
<g id="edge21" class="edge"><title>lue_hl&#45;&gt;lue_algorithms</title>
<path fill="none" stroke="black" d="M79.8221,-350.273C79.8221,-358.496 79.8221,-367.57 79.8221,-376.438"/>
<polygon fill="black" stroke="black" points="79.8221,-386.692 75.3222,-376.692 79.8221,-381.692 79.8222,-376.692 79.8222,-376.692 79.8222,-376.692 79.8221,-381.692 84.3222,-376.692 79.8221,-386.692 79.8221,-386.692"/>
</g>
<!-- lue_in_memory_datatype_prototype -->
<g id="node6" class="node"><title>lue_in_memory_datatype_prototype</title>
<polygon fill="lightgrey" stroke="black" points="500.322,-551 375.322,-551 375.322,-515 500.322,-515 500.322,-551"/>
<text text-anchor="start" x="383.322" y="-536" font-family="Courier,monospace" font-size="10.00">In&#45;memory datatype</text>
<text text-anchor="start" x="383.322" y="-525" font-family="Courier,monospace" font-size="10.00">&#45; Python</text>
</g>
<!-- lue_py&#45;&gt;lue_in_memory_datatype_prototype -->
<g id="edge7" class="edge"><title>lue_py&#45;&gt;lue_in_memory_datatype_prototype</title>
<path fill="none" stroke="black" d="M411.803,-442.191C416.729,-459.195 424.339,-485.463 430.059,-505.206"/>
<polygon fill="black" stroke="black" points="432.854,-514.851 425.749,-506.499 431.462,-510.049 430.071,-505.246 430.071,-505.246 430.071,-505.246 431.462,-510.049 434.393,-503.994 432.854,-514.851 432.854,-514.851"/>
</g>
<!-- lue_algorithms_prototype -->
<g id="node7" class="node"><title>lue_algorithms_prototype</title>
<polygon fill="lightgrey" stroke="black" points="607.322,-641.5 374.322,-641.5 374.322,-600.5 607.322,-600.5 607.322,-641.5"/>
<text text-anchor="start" x="382.322" y="-629.5" font-family="Courier,monospace" font-size="10.00">Modeling algorithms</text>
<text text-anchor="start" x="382.322" y="-618.5" font-family="Courier,monospace" font-size="10.00">&#45; Python</text>
<text text-anchor="start" x="382.322" y="-607.5" font-family="Courier,monospace" font-size="10.00">&#45; By domain experts (for time being)</text>
</g>
<!-- lue_in_memory_datatype_prototype&#45;&gt;lue_algorithms_prototype -->
<g id="edge8" class="edge"><title>lue_in_memory_datatype_prototype&#45;&gt;lue_algorithms_prototype</title>
<path fill="none" stroke="black" d="M448.547,-551.403C455.625,-562.888 465.064,-578.204 473.227,-591.449"/>
<polygon fill="black" stroke="black" points="478.63,-600.216 469.552,-594.064 476.006,-595.959 473.383,-591.703 473.383,-591.703 473.383,-591.703 476.006,-595.959 477.214,-589.342 478.63,-600.216 478.63,-600.216"/>
</g>
<!-- lue_modeling -->
<g id="node8" class="node"><title>lue_modeling</title>
<polygon fill="lightgrey" stroke="black" points="343.322,-553.5 206.322,-553.5 206.322,-512.5 343.322,-512.5 343.322,-553.5"/>
<text text-anchor="start" x="214.322" y="-541.5" font-family="Courier,monospace" font-size="10.00">Modeling environment</text>
<text text-anchor="start" x="214.322" y="-530.5" font-family="Courier,monospace" font-size="10.00">&#45; Python</text>
<text text-anchor="start" x="214.322" y="-519.5" font-family="Courier,monospace" font-size="10.00">&#45; For domain experts</text>
</g>
<!-- lue_algorithms&#45;&gt;lue_modeling -->
<g id="edge23" class="edge"><title>lue_algorithms&#45;&gt;lue_modeling</title>
<path fill="none" stroke="black" d="M145.568,-461.076C173.437,-476.368 205.19,-493.792 230.25,-507.543"/>
<polygon fill="black" stroke="black" points="239.16,-512.432 228.229,-511.566 234.777,-510.026 230.393,-507.621 230.393,-507.621 230.393,-507.621 234.777,-510.026 232.558,-503.676 239.16,-512.432 239.16,-512.432"/>
</g>
<!-- lue_in_memory_datatype -->
<g id="node10" class="node"><title>lue_in_memory_datatype</title>
<polygon fill="lightgrey" stroke="black" points="350.322,-442 225.322,-442 225.322,-406 350.322,-406 350.322,-442"/>
<text text-anchor="start" x="233.322" y="-427" font-family="Courier,monospace" font-size="10.00">In&#45;memory datatype</text>
<text text-anchor="start" x="233.322" y="-416" font-family="Courier,monospace" font-size="10.00">&#45; C++</text>
</g>
<!-- lue_in_memory_datatype&#45;&gt;lue_modeling -->
<g id="edge24" class="edge"><title>lue_in_memory_datatype&#45;&gt;lue_modeling</title>
<path fill="none" stroke="black" d="M285.733,-442.191C283.771,-458.341 280.794,-482.848 278.445,-502.184"/>
<polygon fill="black" stroke="black" points="277.215,-512.308 273.954,-501.839 277.818,-507.345 278.421,-502.381 278.421,-502.381 278.421,-502.381 277.818,-507.345 282.888,-502.924 277.215,-512.308 277.215,-512.308"/>
</g>
<!-- python_c -->
<g id="node11" class="node"><title>python_c</title>
<polygon fill="lightgrey" stroke="black" points="474.322,-225.5 385.322,-225.5 385.322,-189.5 474.322,-189.5 474.322,-225.5"/>
<text text-anchor="start" x="393.322" y="-205" font-family="Courier,monospace" font-size="10.00">Python C&#45;API</text>
</g>
<!-- python_c&#45;&gt;lue_py -->
<g id="edge6" class="edge"><title>python_c&#45;&gt;lue_py</title>
<path fill="none" stroke="black" d="M425.583,-225.528C421.829,-241.347 416.537,-265.613 413.822,-287 409.065,-324.477 407.52,-368.155 407.029,-395.691"/>
<polygon fill="black" stroke="black" points="406.885,-405.752 402.529,-395.688 406.957,-400.752 407.029,-395.753 407.029,-395.753 407.029,-395.753 406.957,-400.752 411.528,-395.817 406.885,-405.752 406.885,-405.752"/>
</g>
<!-- python_c&#45;&gt;lue_modeling -->
<g id="edge25" class="edge"><title>python_c&#45;&gt;lue_modeling</title>
<path fill="none" stroke="black" d="M391.689,-225.549C340.649,-250.745 252.32,-303.255 215.822,-379 200.002,-411.832 203.439,-426.724 215.822,-461 221.82,-477.602 233.578,-493.061 245.029,-505.287"/>
<polygon fill="black" stroke="black" points="252.066,-512.463 241.851,-508.473 248.565,-508.893 245.064,-505.323 245.064,-505.323 245.064,-505.323 248.565,-508.893 248.277,-502.172 252.066,-512.463 252.066,-512.463"/>
</g>
<!-- pcraster_python -->
<g id="node13" class="node"><title>pcraster_python</title>
<polygon fill="lightgrey" stroke="black" points="789.322,-551 652.322,-551 652.322,-515 789.322,-515 789.322,-551"/>
<text text-anchor="start" x="660.322" y="-536" font-family="Courier,monospace" font-size="10.00">PCRaster Python&#45;API</text>
<text text-anchor="start" x="660.322" y="-525" font-family="Courier,monospace" font-size="10.00">&#45; For domain experts</text>
</g>
<!-- python_c&#45;&gt;pcraster_python -->
<g id="edge13" class="edge"><title>python_c&#45;&gt;pcraster_python</title>
<path fill="none" stroke="black" d="M449.668,-225.654C467.292,-241.16 493.486,-264.879 514.822,-287 588.214,-363.094 666.287,-461.39 701.555,-506.869"/>
<polygon fill="black" stroke="black" points="707.828,-514.984 698.151,-509.824 704.77,-511.028 701.712,-507.072 701.712,-507.072 701.712,-507.072 704.77,-511.028 705.272,-504.32 707.828,-514.984 707.828,-514.984"/>
</g>
<!-- numpy_c -->
<g id="node19" class="node"><title>numpy_c</title>
<polygon fill="lightgrey" stroke="black" points="506.322,-336.5 423.322,-336.5 423.322,-300.5 506.322,-300.5 506.322,-336.5"/>
<text text-anchor="start" x="431.322" y="-316" font-family="Courier,monospace" font-size="10.00">Numpy C&#45;API</text>
</g>
<!-- python_c&#45;&gt;numpy_c -->
<g id="edge12" class="edge"><title>python_c&#45;&gt;numpy_c</title>
<path fill="none" stroke="black" d="M435.291,-225.531C440.883,-242.947 449.652,-270.255 456.183,-290.597"/>
<polygon fill="black" stroke="black" points="459.276,-300.229 451.934,-292.083 457.748,-295.468 456.219,-290.707 456.219,-290.707 456.219,-290.707 457.748,-295.468 460.503,-289.332 459.276,-300.229 459.276,-300.229"/>
</g>
<!-- geoneric_fern -->
<g id="node12" class="node"><title>geoneric_fern</title>
<polygon fill="lightgrey" stroke="black" points="1074.32,-444.5 961.322,-444.5 961.322,-403.5 1074.32,-403.5 1074.32,-444.5"/>
<text text-anchor="start" x="969.322" y="-432.5" font-family="Courier,monospace" font-size="10.00">Geoneric Fern</text>
<text text-anchor="start" x="969.322" y="-421.5" font-family="Courier,monospace" font-size="10.00">&#45; C++ algorithms</text>
<text text-anchor="start" x="969.322" y="-410.5" font-family="Courier,monospace" font-size="10.00">&#45; parallel</text>
</g>
<!-- geoneric_fern&#45;&gt;pcraster_python -->
<g id="edge14" class="edge"><title>geoneric_fern&#45;&gt;pcraster_python</title>
<path fill="none" stroke="black" d="M989.42,-444.662C979.492,-450.734 968.022,-456.896 956.822,-461 889.93,-485.509 865.95,-464.146 798.822,-488 783.586,-493.414 767.856,-501.691 754.548,-509.611"/>
<polygon fill="black" stroke="black" points="745.758,-514.998 751.933,-505.936 750.021,-512.385 754.284,-509.773 754.284,-509.773 754.284,-509.773 750.021,-512.385 756.636,-513.61 745.758,-514.998 745.758,-514.998"/>
</g>
<!-- pcraster_python&#45;&gt;lue_algorithms_prototype -->
<g id="edge20" class="edge"><title>pcraster_python&#45;&gt;lue_algorithms_prototype</title>
<path fill="none" stroke="black" d="M675.106,-551.094C640.083,-564.189 591.39,-582.396 552.853,-596.806"/>
<polygon fill="black" stroke="black" points="543.288,-600.382 551.079,-592.665 547.971,-598.631 552.655,-596.88 552.655,-596.88 552.655,-596.88 547.971,-598.631 554.231,-601.095 543.288,-600.382 543.288,-600.382"/>
<text text-anchor="middle" x="671.322" y="-574.5" font-family="Courier,monospace" font-size="10.00">Raster operations</text>
</g>
<!-- pcraster_pcrcalc -->
<g id="node14" class="node"><title>pcraster_pcrcalc</title>
<polygon fill="lightgrey" stroke="black" points="944.322,-551 807.322,-551 807.322,-515 944.322,-515 944.322,-551"/>
<text text-anchor="start" x="815.322" y="-536" font-family="Courier,monospace" font-size="10.00">PCRaster pcrcalc&#45;API</text>
<text text-anchor="start" x="815.322" y="-525" font-family="Courier,monospace" font-size="10.00">&#45; For domain experts</text>
</g>
<!-- pcraster_raster_format -->
<g id="node15" class="node"><title>pcraster_raster_format</title>
<polygon fill="lightgrey" stroke="black" points="821.322,-225.5 678.322,-225.5 678.322,-189.5 821.322,-189.5 821.322,-225.5"/>
<text text-anchor="start" x="686.322" y="-210.5" font-family="Courier,monospace" font-size="10.00">PCRaster rasterformat</text>
<text text-anchor="start" x="686.322" y="-199.5" font-family="Courier,monospace" font-size="10.00">&#45; CSF</text>
</g>
<!-- gdal -->
<g id="node16" class="node"><title>gdal</title>
<polygon fill="lightgrey" stroke="black" points="855.322,-336.5 766.322,-336.5 766.322,-300.5 855.322,-300.5 855.322,-336.5"/>
<text text-anchor="start" x="774.322" y="-316" font-family="Courier,monospace" font-size="10.00">GDAL C++&#45;API</text>
</g>
<!-- pcraster_raster_format&#45;&gt;gdal -->
<g id="edge17" class="edge"><title>pcraster_raster_format&#45;&gt;gdal</title>
<path fill="none" stroke="black" d="M759.353,-225.531C769.233,-243.185 784.802,-271.005 796.232,-291.429"/>
<polygon fill="black" stroke="black" points="801.156,-300.229 792.346,-293.7 798.715,-295.865 796.273,-291.502 796.273,-291.502 796.273,-291.502 798.715,-295.865 800.2,-289.305 801.156,-300.229 801.156,-300.229"/>
</g>
<!-- pcraster_cxx -->
<g id="node17" class="node"><title>pcraster_cxx</title>
<polygon fill="lightgrey" stroke="black" points="834.322,-442 721.322,-442 721.322,-406 834.322,-406 834.322,-442"/>
<text text-anchor="start" x="729.322" y="-421.5" font-family="Courier,monospace" font-size="10.00">PCRaster C++&#45;API</text>
</g>
<!-- pcraster_raster_format&#45;&gt;pcraster_cxx -->
<g id="edge18" class="edge"><title>pcraster_raster_format&#45;&gt;pcraster_cxx</title>
<path fill="none" stroke="black" d="M749.632,-225.615C749.594,-252.35 750.562,-305.562 757.822,-350 760.355,-365.502 764.882,-382.442 768.99,-396.098"/>
<polygon fill="black" stroke="black" points="772.009,-405.823 764.747,-397.607 770.527,-401.048 769.044,-396.273 769.044,-396.273 769.044,-396.273 770.527,-401.048 773.342,-394.938 772.009,-405.823 772.009,-405.823"/>
</g>
<!-- gdal&#45;&gt;pcraster_cxx -->
<g id="edge19" class="edge"><title>gdal&#45;&gt;pcraster_cxx</title>
<path fill="none" stroke="black" d="M805.373,-336.591C800.214,-352.771 792.387,-377.318 786.393,-396.119"/>
<polygon fill="black" stroke="black" points="783.279,-405.884 782.03,-394.989 784.798,-401.12 786.317,-396.356 786.317,-396.356 786.317,-396.356 784.798,-401.12 790.605,-397.723 783.279,-405.884 783.279,-405.884"/>
</g>
<!-- pcraster_cxx&#45;&gt;pcraster_python -->
<g id="edge15" class="edge"><title>pcraster_cxx&#45;&gt;pcraster_python</title>
<path fill="none" stroke="black" d="M768.664,-442.191C759.481,-459.429 745.227,-486.188 734.664,-506.017"/>
<polygon fill="black" stroke="black" points="729.957,-514.851 730.687,-503.91 732.308,-510.438 734.659,-506.025 734.659,-506.025 734.659,-506.025 732.308,-510.438 738.631,-508.141 729.957,-514.851 729.957,-514.851"/>
</g>
<!-- pcraster_cxx&#45;&gt;pcraster_pcrcalc -->
<g id="edge16" class="edge"><title>pcraster_cxx&#45;&gt;pcraster_pcrcalc</title>
<path fill="none" stroke="black" d="M793.567,-442.191C809.712,-459.819 834.977,-487.403 853.247,-507.352"/>
<polygon fill="black" stroke="black" points="860.116,-514.851 850.043,-510.516 856.739,-511.164 853.362,-507.477 853.362,-507.477 853.362,-507.477 856.739,-511.164 856.68,-504.437 860.116,-514.851 860.116,-514.851"/>
</g>
<!-- numpy_python -->
<g id="node18" class="node"><title>numpy_python</title>
<polygon fill="lightgrey" stroke="black" points="585.322,-442 472.322,-442 472.322,-406 585.322,-406 585.322,-442"/>
<text text-anchor="start" x="480.322" y="-421.5" font-family="Courier,monospace" font-size="10.00">Numpy Python&#45;API</text>
</g>
<!-- numpy_python&#45;&gt;lue_in_memory_datatype_prototype -->
<g id="edge9" class="edge"><title>numpy_python&#45;&gt;lue_in_memory_datatype_prototype</title>
<path fill="none" stroke="black" d="M514.201,-442.191C499.276,-459.741 475.958,-487.159 459.01,-507.087"/>
<polygon fill="black" stroke="black" points="452.407,-514.851 455.457,-504.318 455.646,-511.042 458.885,-507.234 458.885,-507.234 458.885,-507.234 455.646,-511.042 462.313,-510.149 452.407,-514.851 452.407,-514.851"/>
</g>
<!-- numpy_python&#45;&gt;lue_algorithms_prototype -->
<g id="edge10" class="edge"><title>numpy_python&#45;&gt;lue_algorithms_prototype</title>
<path fill="none" stroke="black" d="M527.136,-442.394C524.413,-468.487 518.367,-519.213 508.822,-561.5 506.64,-571.167 503.659,-581.555 500.75,-590.856"/>
<polygon fill="black" stroke="black" points="497.664,-600.435 496.447,-589.537 499.197,-595.676 500.731,-590.917 500.731,-590.917 500.731,-590.917 499.197,-595.676 505.014,-592.297 497.664,-600.435 497.664,-600.435"/>
<text text-anchor="middle" x="570.322" y="-530.5" font-family="Courier,monospace" font-size="10.00">Array operations</text>
</g>
<!-- numpy_c&#45;&gt;lue_py -->
<g id="edge11" class="edge"><title>numpy_c&#45;&gt;lue_py</title>
<path fill="none" stroke="black" d="M455.245,-336.591C446.009,-353.071 431.91,-378.23 421.304,-397.158"/>
<polygon fill="black" stroke="black" points="416.414,-405.884 417.377,-394.96 418.858,-401.522 421.302,-397.16 421.302,-397.16 421.302,-397.16 418.858,-401.522 425.228,-399.36 416.414,-405.884 416.414,-405.884"/>
</g>
</g>
</svg>
