<?xml version="1.0" encoding="UTF-8" standalone="no"?>
<!DOCTYPE svg PUBLIC "-//W3C//DTD SVG 1.1//EN"
 "http://www.w3.org/Graphics/SVG/1.1/DTD/svg11.dtd">
<!-- Generated by graphviz version 2.38.0 (20140413.2041)
 -->
<!-- Title: %3 Pages: 1 -->
<svg width="401pt" height="383pt"
 viewBox="0.00 0.00 401.00 383.00" xmlns="http://www.w3.org/2000/svg" xmlns:xlink="http://www.w3.org/1999/xlink">
<g id="graph0" class="graph" transform="scale(1 1) rotate(0) translate(4 379)">
<title>%3</title>
<g id="clust1" class="cluster"><title>cluster_node_96</title>
<polygon fill="none" stroke="black" points="8,-8 8,-367 385,-367 385,-8 8,-8"/>
<text text-anchor="start" x="163" y="-355" font-family="Courier,monospace" font-size="10.00">./areas.lue</text>
</g>
<!-- node_2536 -->
<g id="node1" class="node"><title>node_2536</title>
<ellipse fill="#791d72" stroke="black" cx="165" cy="-322" rx="27.8353" ry="18"/>
<text text-anchor="start" x="149.5" y="-319.5" font-family="Courier,monospace" font-size="10.00" fill="white">areas</text>
</g>
<!-- node_4600 -->
<g id="node2" class="node"><title>node_4600</title>
<ellipse fill="#9a0000" stroke="black" cx="165" cy="-250" rx="27.8353" ry="18"/>
<text text-anchor="start" x="149.5" y="-247.5" font-family="Courier,monospace" font-size="10.00" fill="white">areas</text>
</g>
<!-- node_2536&#45;&gt;node_4600 -->
<g id="edge11" class="edge"><title>node_2536&#45;&gt;node_4600</title>
<path fill="none" stroke="black" d="M165,-303.697C165,-295.983 165,-286.712 165,-278.112"/>
<polygon fill="black" stroke="black" points="165,-268.104 169.5,-278.104 165,-273.104 165,-278.104 165,-278.104 165,-278.104 165,-273.104 160.5,-278.104 165,-268.104 165,-268.104"/>
</g>
<!-- node_8520 -->
<g id="node3" class="node"><title>node_8520</title>
<polygon fill="#f08000" stroke="black" points="75.5,-196 16.5,-196 16.5,-160 75.5,-160 75.5,-196"/>
<text text-anchor="start" x="24.5" y="-175.5" font-family="Courier,monospace" font-size="10.00" fill="white">lue_ids</text>
</g>
<!-- node_4600&#45;&gt;node_8520 -->
<g id="edge1" class="edge"><title>node_4600&#45;&gt;node_8520</title>
<path fill="none" stroke="black" d="M145.082,-237.284C128.368,-227.452 104.027,-213.133 83.6537,-201.149"/>
<polygon fill="black" stroke="black" points="74.9074,-196.004 85.8084,-197.196 79.2171,-198.54 83.5268,-201.075 83.5268,-201.075 83.5268,-201.075 79.2171,-198.54 81.2452,-204.953 74.9074,-196.004 74.9074,-196.004"/>
</g>
<!-- node_6784 -->
<g id="node4" class="node"><title>node_6784</title>
<ellipse fill="#094d8e" stroke="black" cx="196" cy="-106" rx="45.1548" ry="18"/>
<text text-anchor="start" x="165.5" y="-103.5" font-family="Courier,monospace" font-size="10.00" fill="white">lue_domain</text>
</g>
<!-- node_4600&#45;&gt;node_6784 -->
<g id="edge3" class="edge"><title>node_4600&#45;&gt;node_6784</title>
<path fill="none" stroke="black" d="M172.781,-232.664C177.352,-222.371 182.837,-208.676 186,-196 191.075,-175.666 193.578,-152.071 194.81,-134.287"/>
<polygon fill="black" stroke="black" points="195.412,-124.301 199.302,-134.554 195.111,-129.292 194.811,-134.283 194.811,-134.283 194.811,-134.283 195.111,-129.292 190.319,-134.012 195.412,-124.301 195.412,-124.301"/>
</g>
<!-- node_16352 -->
<g id="node6" class="node"><title>node_16352</title>
<ellipse fill="#419702" stroke="black" cx="135" cy="-178" rx="41.5911" ry="18"/>
<text text-anchor="start" x="107.5" y="-175.5" font-family="Courier,monospace" font-size="10.00" fill="white">elevation</text>
</g>
<!-- node_4600&#45;&gt;node_16352 -->
<g id="edge6" class="edge"><title>node_4600&#45;&gt;node_16352</title>
<path fill="none" stroke="black" d="M157.89,-232.411C154.429,-224.335 150.185,-214.431 146.295,-205.355"/>
<polygon fill="black" stroke="black" points="142.267,-195.956 150.342,-203.375 144.237,-200.552 146.206,-205.148 146.206,-205.148 146.206,-205.148 144.237,-200.552 142.07,-206.92 142.267,-195.956 142.267,-195.956"/>
</g>
<!-- node_12008 -->
<g id="node8" class="node"><title>node_12008</title>
<ellipse fill="#419702" stroke="black" cx="296" cy="-178" rx="80.7939" ry="18"/>
<text text-anchor="start" x="235.5" y="-175.5" font-family="Courier,monospace" font-size="10.00" fill="white">space discretization</text>
</g>
<!-- node_4600&#45;&gt;node_12008 -->
<g id="edge9" class="edge"><title>node_4600&#45;&gt;node_12008</title>
<path fill="none" stroke="black" d="M185.757,-237.908C204.865,-227.698 233.702,-212.289 257.091,-199.791"/>
<polygon fill="black" stroke="black" points="266.082,-194.987 259.383,-203.669 261.672,-197.343 257.262,-199.7 257.262,-199.7 257.262,-199.7 261.672,-197.343 255.141,-195.731 266.082,-194.987 266.082,-194.987"/>
</g>
<!-- node_7488 -->
<g id="node5" class="node"><title>node_7488</title>
<ellipse fill="#36a2c9" stroke="black" cx="196" cy="-34" rx="66.5378" ry="18"/>
<text text-anchor="start" x="147.5" y="-31.5" font-family="Courier,monospace" font-size="10.00" fill="white">lue_space_domain</text>
</g>
<!-- node_6784&#45;&gt;node_7488 -->
<g id="edge2" class="edge"><title>node_6784&#45;&gt;node_7488</title>
<path fill="none" stroke="black" d="M196,-87.6966C196,-79.9827 196,-70.7125 196,-62.1124"/>
<polygon fill="black" stroke="black" points="196,-52.1043 200.5,-62.1043 196,-57.1043 196,-62.1043 196,-62.1043 196,-62.1043 196,-57.1043 191.5,-62.1044 196,-52.1043 196,-52.1043"/>
</g>
<!-- node_16352&#45;&gt;node_6784 -->
<g id="edge7" class="edge"><title>node_16352&#45;&gt;node_6784</title>
<path fill="none" stroke="black" d="M149.148,-160.765C156.924,-151.841 166.713,-140.608 175.33,-130.719"/>
<polygon fill="black" stroke="black" points="181.929,-123.147 178.752,-133.643 178.644,-126.917 175.359,-130.686 175.359,-130.686 175.359,-130.686 178.644,-126.917 171.966,-127.73 181.929,-123.147 181.929,-123.147"/>
</g>
<!-- node_17160 -->
<g id="node7" class="node"><title>node_17160</title>
<ellipse fill="#f08000" stroke="black" cx="91" cy="-106" rx="41.5911" ry="18"/>
<text text-anchor="start" x="63.5" y="-103.5" font-family="Courier,monospace" font-size="10.00" fill="white">lue_value</text>
</g>
<!-- node_16352&#45;&gt;node_17160 -->
<g id="edge4" class="edge"><title>node_16352&#45;&gt;node_17160</title>
<path fill="none" stroke="black" d="M124.573,-160.411C119.257,-151.955 112.682,-141.494 106.763,-132.078"/>
<polygon fill="black" stroke="black" points="101.353,-123.47 110.484,-129.542 104.013,-127.703 106.674,-131.936 106.674,-131.936 106.674,-131.936 104.013,-127.703 102.864,-134.331 101.353,-123.47 101.353,-123.47"/>
</g>
<!-- node_16352&#45;&gt;node_12008 -->
<g id="edge5" class="edge"><title>node_16352&#45;&gt;node_12008</title>
<path fill="none" stroke="black" stroke-dasharray="5,2" d="M176.822,-178C186.167,-178 195.512,-178 204.856,-178"/>
<polygon fill="black" stroke="black" points="214.996,-178 204.996,-182.5 209.996,-178 204.996,-178 204.996,-178 204.996,-178 209.996,-178 204.996,-173.5 214.996,-178 214.996,-178"/>
</g>
<!-- node_12008&#45;&gt;node_6784 -->
<g id="edge10" class="edge"><title>node_12008&#45;&gt;node_6784</title>
<path fill="none" stroke="black" d="M272.554,-160.588C258.656,-150.859 240.902,-138.431 225.991,-127.994"/>
<polygon fill="black" stroke="black" points="217.591,-122.114 228.364,-124.162 221.687,-124.981 225.783,-127.848 225.783,-127.848 225.783,-127.848 221.687,-124.981 223.203,-131.535 217.591,-122.114 217.591,-122.114"/>
</g>
<!-- node_13136 -->
<g id="node9" class="node"><title>node_13136</title>
<polygon fill="#f08000" stroke="black" points="331.5,-124 260.5,-124 260.5,-88 331.5,-88 331.5,-124"/>
<text text-anchor="start" x="268.5" y="-103.5" font-family="Courier,monospace" font-size="10.00" fill="white">lue_value</text>
</g>
<!-- node_12008&#45;&gt;node_13136 -->
<g id="edge8" class="edge"><title>node_12008&#45;&gt;node_13136</title>
<path fill="none" stroke="black" d="M296,-159.697C296,-151.983 296,-142.712 296,-134.112"/>
<polygon fill="black" stroke="black" points="296,-124.104 300.5,-134.104 296,-129.104 296,-134.104 296,-134.104 296,-134.104 296,-129.104 291.5,-134.104 296,-124.104 296,-124.104"/>
</g>
</g>
</svg>
