<?xml version="1.0" encoding="UTF-8" standalone="no"?>
<!DOCTYPE svg PUBLIC "-//W3C//DTD SVG 1.1//EN"
 "http://www.w3.org/Graphics/SVG/1.1/DTD/svg11.dtd">
<!-- Generated by graphviz version 2.38.0 (20140413.2041)
 -->
<!-- Title: %3 Pages: 1 -->
<svg width="228pt" height="383pt"
 viewBox="0.00 0.00 228.00 383.00" xmlns="http://www.w3.org/2000/svg" xmlns:xlink="http://www.w3.org/1999/xlink">
<g id="graph0" class="graph" transform="scale(1 1) rotate(0) translate(4 379)">
<title>%3</title>
<g id="clust1" class="cluster"><title>cluster_node_96</title>
<polygon fill="none" stroke="black" points="8,-8 8,-367 212,-367 212,-8 8,-8"/>
<text text-anchor="start" x="73.5" y="-355" font-family="Courier,monospace" font-size="10.00">./cities.lue</text>
</g>
<!-- node_2536 -->
<g id="node1" class="node"><title>node_2536</title>
<ellipse fill="#791d72" stroke="black" cx="95" cy="-322" rx="31.3996" ry="18"/>
<text text-anchor="start" x="76.5" y="-319.5" font-family="Courier,monospace" font-size="10.00" fill="white">cities</text>
</g>
<!-- node_4600 -->
<g id="node2" class="node"><title>node_4600</title>
<ellipse fill="#9a0000" stroke="black" cx="95" cy="-250" rx="31.3996" ry="18"/>
<text text-anchor="start" x="76.5" y="-247.5" font-family="Courier,monospace" font-size="10.00" fill="white">cities</text>
</g>
<!-- node_2536&#45;&gt;node_4600 -->
<g id="edge7" class="edge"><title>node_2536&#45;&gt;node_4600</title>
<path fill="none" stroke="black" d="M95,-303.697C95,-295.983 95,-286.712 95,-278.112"/>
<polygon fill="black" stroke="black" points="95,-268.104 99.5001,-278.104 95,-273.104 95.0001,-278.104 95.0001,-278.104 95.0001,-278.104 95,-273.104 90.5001,-278.104 95,-268.104 95,-268.104"/>
</g>
<!-- node_7584 -->
<g id="node3" class="node"><title>node_7584</title>
<polygon fill="#f08000" stroke="black" points="75.5,-196 16.5,-196 16.5,-160 75.5,-160 75.5,-196"/>
<text text-anchor="start" x="24.5" y="-175.5" font-family="Courier,monospace" font-size="10.00" fill="white">lue_ids</text>
</g>
<!-- node_4600&#45;&gt;node_7584 -->
<g id="edge1" class="edge"><title>node_4600&#45;&gt;node_7584</title>
<path fill="none" stroke="black" d="M83.8811,-233.116C78.0009,-224.716 70.6372,-214.196 63.9696,-204.671"/>
<polygon fill="black" stroke="black" points="58.1045,-196.292 67.5257,-201.904 60.9718,-200.388 63.8392,-204.484 63.8392,-204.484 63.8392,-204.484 60.9718,-200.388 60.1526,-207.065 58.1045,-196.292 58.1045,-196.292"/>
</g>
<!-- node_6784 -->
<g id="node4" class="node"><title>node_6784</title>
<ellipse fill="#094d8e" stroke="black" cx="69" cy="-106" rx="45.1548" ry="18"/>
<text text-anchor="start" x="38.5" y="-103.5" font-family="Courier,monospace" font-size="10.00" fill="white">lue_domain</text>
</g>
<!-- node_4600&#45;&gt;node_6784 -->
<g id="edge3" class="edge"><title>node_4600&#45;&gt;node_6784</title>
<path fill="none" stroke="black" d="M93.6605,-231.813C92.0737,-213.795 88.9957,-184.722 84,-160 82.2494,-151.337 79.8078,-142.021 77.4022,-133.653"/>
<polygon fill="black" stroke="black" points="74.5347,-124.023 81.7016,-132.323 75.9617,-128.815 77.3887,-133.607 77.3887,-133.607 77.3887,-133.607 75.9617,-128.815 73.0759,-134.892 74.5347,-124.023 74.5347,-124.023"/>
</g>
<!-- node_14376 -->
<g id="node6" class="node"><title>node_14376</title>
<ellipse fill="#419702" stroke="black" cx="159" cy="-178" rx="45.1548" ry="18"/>
<text text-anchor="start" x="128.5" y="-175.5" font-family="Courier,monospace" font-size="10.00" fill="white">population</text>
</g>
<!-- node_4600&#45;&gt;node_14376 -->
<g id="edge5" class="edge"><title>node_4600&#45;&gt;node_14376</title>
<path fill="none" stroke="black" d="M108.887,-233.811C117.207,-224.711 127.963,-212.947 137.376,-202.652"/>
<polygon fill="black" stroke="black" points="144.249,-195.134 140.823,-205.55 140.875,-198.824 137.502,-202.514 137.502,-202.514 137.502,-202.514 140.875,-198.824 134.18,-199.477 144.249,-195.134 144.249,-195.134"/>
</g>
<!-- node_9952 -->
<g id="node5" class="node"><title>node_9952</title>
<ellipse fill="#36a2c9" stroke="black" cx="83" cy="-34" rx="66.5378" ry="18"/>
<text text-anchor="start" x="34.5" y="-31.5" font-family="Courier,monospace" font-size="10.00" fill="white">lue_space_domain</text>
</g>
<!-- node_6784&#45;&gt;node_9952 -->
<g id="edge2" class="edge"><title>node_6784&#45;&gt;node_9952</title>
<path fill="none" stroke="black" d="M72.4607,-87.6966C74.0035,-79.9827 75.8575,-70.7125 77.5775,-62.1124"/>
<polygon fill="black" stroke="black" points="79.5791,-52.1043 82.0305,-62.7927 78.5985,-57.0072 77.6179,-61.9101 77.6179,-61.9101 77.6179,-61.9101 78.5985,-57.0072 73.2053,-61.0276 79.5791,-52.1043 79.5791,-52.1043"/>
</g>
<!-- node_14376&#45;&gt;node_6784 -->
<g id="edge6" class="edge"><title>node_14376&#45;&gt;node_6784</title>
<path fill="none" stroke="black" d="M139.026,-161.465C126.589,-151.792 110.413,-139.21 96.7414,-128.577"/>
<polygon fill="black" stroke="black" points="88.6084,-122.251 99.2647,-124.838 92.5552,-125.321 96.502,-128.39 96.502,-128.39 96.502,-128.39 92.5552,-125.321 93.7392,-131.943 88.6084,-122.251 88.6084,-122.251"/>
</g>
<!-- node_15504 -->
<g id="node7" class="node"><title>node_15504</title>
<polygon fill="#f08000" stroke="black" points="203.5,-124 132.5,-124 132.5,-88 203.5,-88 203.5,-124"/>
<text text-anchor="start" x="140.5" y="-103.5" font-family="Courier,monospace" font-size="10.00" fill="white">lue_value</text>
</g>
<!-- node_14376&#45;&gt;node_15504 -->
<g id="edge4" class="edge"><title>node_14376&#45;&gt;node_15504</title>
<path fill="none" stroke="black" d="M161.225,-159.697C162.217,-151.983 163.408,-142.712 164.514,-134.112"/>
<polygon fill="black" stroke="black" points="165.801,-124.104 168.989,-134.597 165.163,-129.064 164.526,-134.023 164.526,-134.023 164.526,-134.023 165.163,-129.064 160.062,-133.449 165.801,-124.104 165.801,-124.104"/>
</g>
</g>
</svg>
