<?xml version="1.0" encoding="UTF-8" standalone="no"?>
<!DOCTYPE svg PUBLIC "-//W3C//DTD SVG 1.1//EN"
 "http://www.w3.org/Graphics/SVG/1.1/DTD/svg11.dtd">
<!-- Generated by graphviz version 2.38.0 (20140413.2041)
 -->
<!-- Title: %3 Pages: 1 -->
<svg width="220pt" height="383pt"
 viewBox="0.00 0.00 220.00 383.00" xmlns="http://www.w3.org/2000/svg" xmlns:xlink="http://www.w3.org/1999/xlink">
<g id="graph0" class="graph" transform="scale(1 1) rotate(0) translate(4 379)">
<title>%3</title>
<g id="clust1" class="cluster"><title>cluster_node_96</title>
<polygon fill="none" stroke="black" points="8,-8 8,-367 204,-367 204,-8 8,-8"/>
<text text-anchor="start" x="72.5" y="-355" font-family="Courier,monospace" font-size="10.00">planets.lue</text>
</g>
<!-- node_2536 -->
<g id="node1" class="node"><title>node_2536</title>
<ellipse fill="#791d72" stroke="black" cx="95" cy="-322" rx="34.9638" ry="18"/>
<text text-anchor="start" x="73.5" y="-319.5" font-family="Courier,monospace" font-size="10.00" fill="white">planets</text>
</g>
<!-- node_4600 -->
<g id="node2" class="node"><title>node_4600</title>
<ellipse fill="#9a0000" stroke="black" cx="95" cy="-250" rx="41.5911" ry="18"/>
<text text-anchor="start" x="67.5" y="-247.5" font-family="Courier,monospace" font-size="10.00" fill="white">constants</text>
</g>
<!-- node_2536&#45;&gt;node_4600 -->
<g id="edge7" class="edge"><title>node_2536&#45;&gt;node_4600</title>
<path fill="none" stroke="black" d="M95,-303.697C95,-295.983 95,-286.712 95,-278.112"/>
<polygon fill="black" stroke="black" points="95,-268.104 99.5001,-278.104 95,-273.104 95.0001,-278.104 95.0001,-278.104 95.0001,-278.104 95,-273.104 90.5001,-278.104 95,-268.104 95,-268.104"/>
</g>
<!-- node_8520 -->
<g id="node3" class="node"><title>node_8520</title>
<polygon fill="#f08000" stroke="black" points="75.5,-196 16.5,-196 16.5,-160 75.5,-160 75.5,-196"/>
<text text-anchor="start" x="24.5" y="-175.5" font-family="Courier,monospace" font-size="10.00" fill="white">lue_ids</text>
</g>
<!-- node_4600&#45;&gt;node_8520 -->
<g id="edge1" class="edge"><title>node_4600&#45;&gt;node_8520</title>
<path fill="none" stroke="black" d="M83.3877,-232.411C77.64,-224.2 70.5694,-214.099 64.1297,-204.9"/>
<polygon fill="black" stroke="black" points="58.2127,-196.447 67.634,-202.059 61.0801,-200.543 63.9474,-204.639 63.9474,-204.639 63.9474,-204.639 61.0801,-200.543 60.2609,-207.22 58.2127,-196.447 58.2127,-196.447"/>
</g>
<!-- node_6784 -->
<g id="node4" class="node"><title>node_6784</title>
<ellipse fill="#094d8e" stroke="black" cx="61" cy="-106" rx="45.1548" ry="18"/>
<text text-anchor="start" x="30.5" y="-103.5" font-family="Courier,monospace" font-size="10.00" fill="white">lue_domain</text>
</g>
<!-- node_4600&#45;&gt;node_6784 -->
<g id="edge3" class="edge"><title>node_4600&#45;&gt;node_6784</title>
<path fill="none" stroke="black" d="M94.3428,-231.991C93.3101,-213.87 90.6761,-184.484 84,-160 81.5344,-150.958 77.8047,-141.456 74.062,-133.034"/>
<polygon fill="black" stroke="black" points="69.7375,-123.736 78.0351,-130.906 71.8462,-128.27 73.9548,-132.804 73.9548,-132.804 73.9548,-132.804 71.8462,-128.27 69.8746,-134.701 69.7375,-123.736 69.7375,-123.736"/>
</g>
<!-- node_8792 -->
<g id="node6" class="node"><title>node_8792</title>
<ellipse fill="#419702" stroke="black" cx="149" cy="-178" rx="34.9638" ry="18"/>
<text text-anchor="start" x="127.5" y="-175.5" font-family="Courier,monospace" font-size="10.00" fill="white">gravity</text>
</g>
<!-- node_4600&#45;&gt;node_8792 -->
<g id="edge5" class="edge"><title>node_4600&#45;&gt;node_8792</title>
<path fill="none" stroke="black" d="M107.524,-232.765C114.272,-224.018 122.731,-213.052 130.248,-203.308"/>
<polygon fill="black" stroke="black" points="136.544,-195.147 133.998,-205.814 133.489,-199.106 130.435,-203.065 130.435,-203.065 130.435,-203.065 133.489,-199.106 126.872,-200.317 136.544,-195.147 136.544,-195.147"/>
</g>
<!-- node_7488 -->
<g id="node5" class="node"><title>node_7488</title>
<ellipse fill="#36a2c9" stroke="black" cx="83" cy="-34" rx="66.5378" ry="18"/>
<text text-anchor="start" x="34.5" y="-31.5" font-family="Courier,monospace" font-size="10.00" fill="white">lue_space_domain</text>
</g>
<!-- node_6784&#45;&gt;node_7488 -->
<g id="edge2" class="edge"><title>node_6784&#45;&gt;node_7488</title>
<path fill="none" stroke="black" d="M66.3256,-88.055C68.7751,-80.2609 71.7417,-70.8219 74.4895,-62.0789"/>
<polygon fill="black" stroke="black" points="77.5706,-52.2753 78.8653,-63.1645 76.0715,-57.0453 74.5723,-61.8152 74.5723,-61.8152 74.5723,-61.8152 76.0715,-57.0453 70.2793,-60.466 77.5706,-52.2753 77.5706,-52.2753"/>
</g>
<!-- node_8792&#45;&gt;node_6784 -->
<g id="edge6" class="edge"><title>node_8792&#45;&gt;node_6784</title>
<path fill="none" stroke="black" d="M130.766,-162.496C118.593,-152.812 102.356,-139.897 88.6098,-128.962"/>
<polygon fill="black" stroke="black" points="80.4311,-122.457 91.0585,-125.16 84.3442,-125.569 88.2572,-128.682 88.2572,-128.682 88.2572,-128.682 84.3442,-125.569 85.4558,-132.204 80.4311,-122.457 80.4311,-122.457"/>
</g>
<!-- node_9920 -->
<g id="node7" class="node"><title>node_9920</title>
<polygon fill="#f08000" stroke="black" points="195.5,-124 124.5,-124 124.5,-88 195.5,-88 195.5,-124"/>
<text text-anchor="start" x="132.5" y="-103.5" font-family="Courier,monospace" font-size="10.00" fill="white">lue_value</text>
</g>
<!-- node_8792&#45;&gt;node_9920 -->
<g id="edge4" class="edge"><title>node_8792&#45;&gt;node_9920</title>
<path fill="none" stroke="black" d="M151.719,-159.697C152.931,-151.983 154.388,-142.712 155.739,-134.112"/>
<polygon fill="black" stroke="black" points="157.312,-124.104 160.205,-134.682 156.536,-129.044 155.76,-133.983 155.76,-133.983 155.76,-133.983 156.536,-129.044 151.314,-133.284 157.312,-124.104 157.312,-124.104"/>
</g>
</g>
</svg>
